<svg t="1584796116262" class="icon" viewBox="0 0 1024 1024" version="1.1" xmlns="http://www.w3.org/2000/svg" p-id="2274" width="200" height="200"><path d="M207.148373 207.88224c-28.299947 3.67616-56.36096 26.89024-65.508693 54.25152C135.932587 279.01952 25.555627 758.04672 25.166507 767.194453c-0.86016 24.9344 13.288107 43.54048 36.74112 48.308907 8.7552 1.795413 749.028693 1.87392 758.330027 0.157013 26.50112-5.07904 51.514027-26.2656 61.047467-51.67104 3.679573-9.85088 117.026133-498.414933 117.49376-506.545493 1.3312-22.981973-12.035413-41.823573-34.553173-48.622933C959.146667 207.336107 218.95168 206.318933 207.148373 207.88224L207.148373 207.88224zM198.550187 363.598507c0 0.546133-0.70656 3.44064-1.563307 6.41024-11.728213 40.024747-23.374507 93.72672-21.889707 100.604587 4.3008 20.169387 33.143467 18.527573 43.697493-2.423467 2.9696-5.782187 25.091413-99.198293 25.091413-105.762133 0-0.314027 34.63168 0.1536 34.942293 0.467627 0.078507 0.078507-0.1536 1.406293-0.62464 2.891093-0.38912 1.4848-6.017707 23.217493-12.427947 48.387413-13.759147 54.330027-15.557973 59.880107-22.746453 70.434133-23.610027 34.863787-102.171307 33.768107-108.581547-1.488213-1.406293-7.89504 15.479467-96.146773 22.981973-120.14592C157.822293 361.721173 198.550187 362.349227 198.550187 363.598507L198.550187 363.598507zM721.89952 363.598507c23.534933 5.16096 30.72 24.15616 19.851947 52.138667-10.939733 28.064427-33.768107 40.649387-74.17856 40.649387-12.19584 0-11.260587-1.87392-19.152213 36.348587-1.4848 7.2704-2.894507 13.994667-3.126613 14.854827-0.546133 2.49856-36.898133 2.49856-36.5056 0 30.72-131.71712 33.14688-143.0528 33.378987-143.991467l0.38912-1.72032 36.97664 0.23552C709.07904 362.349227 717.523627 362.65984 721.89952 363.598507L721.89952 363.598507zM406.1696 414.252373c4.92544 1.252693 8.912213 5.16096 8.912213 8.676693 0 12.741973-26.187093 21.497173-35.723947 11.96032C369.585493 425.120427 389.28384 410.033493 406.1696 414.252373zM315.333973 423.94624c0 1.24928-0.310613 3.283627-0.62464 4.4544l-0.62464 2.112853 6.17472-3.126613c16.26112-8.209067 32.208213-6.802773 37.444267 3.437227 3.20512 6.099627 2.812587 9.772373-5.393067 47.84128-1.4848 6.877867-3.362133 16.0256-4.06528 20.322987-1.798827 10.318507-0.467627 9.61536-18.75968 9.929387-15.63648 0.23552-15.63648 0.23552-15.479467-1.4848 0.078507-0.86016 1.95584-9.301333 4.06528-18.763093 8.362667-36.5056 8.51968-41.663147 1.327787-41.663147-3.986773 0-9.693867 2.423467-10.082987 4.222293-0.781653 3.515733-10.082987 48.073387-10.943147 52.452693l-0.938667 4.68992-16.0256 0.546133c-19.462827 0.62464-18.056533 2.187947-13.759147-15.55456 5.474987-22.514347 8.7552-38.46144 10.94656-52.5312 2.423467-15.479467 0.781653-13.759147 15.397547-16.104107 6.64576-1.017173 13.44512-2.187947 15.16544-2.658987C314.241707 420.898133 315.41248 421.208747 315.333973 423.94624zM558.445227 423.55712c0 1.092267-0.314027 3.126613-0.628053 4.4544l-0.62464 2.58048 6.17472-3.126613c31.8976-16.49664 44.161707-2.894507 34.78528 38.693547-2.10944 9.458347-4.850347 22.43584-6.017707 28.921173-1.1776 6.41024-2.58048 12.117333-3.05152 12.663467-1.795413 1.798827-32.129707 1.72032-31.972693-0.1536 0.078507-0.86016 1.877333-9.147733 4.06528-18.37056 8.598187-37.287253 8.676693-42.134187 1.170773-42.212693-6.02112 0-9.37984 2.030933-10.397013 6.488747-1.3312 5.55008-9.065813 42.68032-10.397013 49.404587l-1.01376 5.471573-16.0256 0.467627c-19.544747 0.546133-17.98144 2.501973-13.366613-16.571733 4.918613-20.247893 8.905387-39.553707 11.021653-53.469867 1.952427-13.2096 0.546133-11.7248 13.29152-13.677227 5.782187-0.938667 12.663467-2.112853 15.243947-2.737493C557.195947 420.97664 558.523733 421.133653 558.445227 423.55712L558.445227 423.55712zM869.563733 422.69696c1.877333 31.423147 2.501973 40.567467 2.816 40.96 0.232107 0.314027 4.68992-7.65952 9.765547-17.824427 10.400427-20.558507 8.133973-18.292053 19.54816-19.930453 3.048107-0.47104 9.147733-1.563307 13.59872-2.423467 11.178667-2.269867 11.257173-3.05152-1.72032 19.305813-17.506987 30.252373-41.66656 72.779093-50.182827 88.255147-26.03008 47.684267-25.873067 47.445333-48.2304 47.919787l-13.134507 0.310613 1.174187-3.82976c0.62464-2.030933 1.87392-6.331733 2.812587-9.458347l1.72032-5.625173 4.061867 0c4.68992 0 5.55008-0.781653 9.925973-8.205653 1.563307-2.58048 3.908267-6.64576 5.317973-8.99072 1.488213-2.34496 6.41024-10.86464 10.943147-18.916693l8.362667-14.5408-2.187947-19.073707c-2.501973-22.20032-5.7856-47.919787-7.113387-55.968427-1.174187-7.038293-1.174187-6.959787 8.04864-8.36608 4.061867-0.62464 10.55744-1.798827 14.383787-2.658987C867.6864 421.915307 869.021013 421.758293 869.563733 422.69696L869.563733 422.69696zM483.556693 423.632213c39.55712 7.2704 25.64096 75.984213-17.27488 85.521067-29.078187 6.485333-49.012053-4.614827-49.012053-27.36128C417.191253 442.395307 446.347947 416.754347 483.556693 423.632213zM778.17856 425.43104c2.19136 0.938667 5.00736 3.048107 6.413653 4.611413 2.34496 2.658987 2.49856 2.737493 2.737493 1.09568 0.310613-2.030933 0.075093-1.95584 20.48-5.31456 16.56832-2.658987 15.868587-2.737493 14.6944 2.266453-6.877867 28.767573-12.427947 53.78048-14.615893 65.97632-3.35872 18.292053-0.86016 16.336213-20.794027 16.100693l-16.725333-0.232107 0.232107-2.19136c0.23552-2.10944-0.86016-2.891093-1.798827-1.327787-5.782187 9.301333-33.30048 5.393067-41.035093-5.7856C708.21888 472.17664 748.78976 411.671893 778.17856 425.43104L778.17856 425.43104zM410.545493 440.439467c0.23552 0.23552 0 2.423467-0.62464 4.846933-3.908267 16.41472-11.410773 49.483093-12.58496 55.657813l-1.406293 7.427413-16.807253 0.467627c-20.169387 0.546133-18.916693 1.4848-14.92992-10.554027 3.751253-11.646293 7.113387-26.340693 9.458347-41.506133 1.952427-13.056-0.078507-11.178667 14.619307-13.366613 6.79936-1.017173 13.755733-2.19136 15.476053-2.58048C407.575893 439.97184 409.99936 439.814827 410.545493 440.439467zM500.28544 546.28352c0 0.47104-1.01376 2.658987-2.34496 4.922027-1.24928 2.348373-2.34496 4.457813-2.34496 4.693333 30.252373 0.546133 31.348053 0.62464 30.958933 1.87392l-5.393067 18.213547-43.85792 0-2.423467 2.269867c-5.471573 5.236053-35.566933 11.803307-35.566933 7.738027l5.55008-18.60608 4.06528 0c6.956373 0 8.7552-1.4848 14.851413-12.346027l5.317973-9.540267C494.73536 545.498453 500.28544 545.81248 500.28544 546.28352L500.28544 546.28352zM567.514453 546.440533c0 0.546133-0.699733 3.283627-1.559893 6.096213s-1.56672 5.317973-1.56672 5.628587c0 0.232107 2.58048-1.252693 5.707093-3.362133 11.332267-7.502507 20.794027-9.304747 49.7152-9.304747 11.48928 0 21.10464 0.160427 21.34016 0.38912 0.703147 0.781653-16.418133 56.439467-18.916693 61.36832-3.35872 6.642347-6.956373 10.315093-12.663467 12.977493l-4.922027 2.266453-29.313707 0.385707-29.31712 0.392533-5.236053 17.199787c-10.164907 33.068373-10.472107 30.8736 4.532907 29.3888 11.96032-1.170773 11.178667-2.266453 7.502507 10.164907l-3.126613 10.472107-15.086933 0.23552c-32.361813 0.54272-36.584107-1.406293-33.06496-15.008427 1.72032-6.567253 38.458027-128.590507 39.007573-129.52576C541.32736 545.030827 567.514453 545.266347 567.514453 546.440533L567.514453 546.440533zM701.965653 546.205013c0 0.385707-0.546133 2.187947-1.174187 3.986773-1.72032 4.922027-1.72032 4.922027 4.92544 1.559893 8.751787-4.4544 29.156693-6.253227 71.133867-6.253227l13.44512 0 0 6.178133c0 7.2704 0.392533 7.738027 6.877867 8.51968l4.68992 0.549547-2.812587 9.14432-2.737493 9.22624-9.0624 0.1536c-23.453013 0.47104-27.364693-1.795413-27.518293-15.79008l0-6.642347-1.56672 4.84352-1.563307 4.92544-5.000533 0c-2.816 0-5.082453 0.157013-5.082453 0.392533 0 0.232107-24.937813 83.2512-28.61056 95.133013-0.38912 1.170773 0.078507 1.406293 3.048107 1.406293 4.379307 0 4.53632 0.232107 3.20512 4.061867-1.563307 4.532907-1.563307 4.532907 3.826347 4.532907 3.519147 0 5.86752-0.47104 8.36608-1.795413 3.672747-1.798827 3.362133-1.488213 19.780267-24.623787l6.79936-9.536853-13.912747 0c-16.653653 0-15.40096 0.93184-12.352853-9.22624l2.49856-8.359253 16.88576-0.23552 16.807253-0.157013c3.20512-10.707627 4.1472-14.06976 4.1472-14.30528 0-0.310613-7.35232-0.628053-16.264533-0.703147l-16.257707-0.23552 2.73408-9.219413 2.658987-9.147733 46.03904 0c25.248427 0 45.96736 0.232107 45.96736 0.546133 0 0.38912-1.174187 4.4544-2.58048 9.222827l-2.583893 8.598187-15.55456 0.392533-15.476053 0.392533c-2.658987 7.89504-3.67616 11.10016-3.986773 12.274347l-0.474453 2.187947 14.779733 0c17.42848 0 16.257707-0.781653 13.052587 9.458347l-2.501973 8.13056-16.882347 0.23552-16.964267 0.157013-2.423467 3.126613-2.42688 3.048107 6.49216 0.23552 6.485333 0.232107 1.952427 12.34944c2.187947 13.912747 2.112853 13.837653 8.833707 13.837653 5.31456 0 5.16096-1.088853 1.563307 11.10016l-2.9696 10.011307-9.611947 0c-16.96768 0-20.094293-2.740907-22.828373-19.85536l-1.72032-11.492693-6.17472 8.444587c-16.810667 23.135573-17.74592 23.68512-39.55712 23.68512-13.755733 0-13.602133 0.078507-11.96032-4.222293 0.703147-2.030933 0.703147-2.030933-3.362133-2.030933-4.140373 0-4.140373 0-4.922027 2.891093l-0.703147 2.9696-14.30528 0.23552-14.301867 0.157013 0.467627-1.72032c1.409707-5.00736 4.222293-4.532907-27.357867-4.532907-26.893653 0-28.613973-0.078507-28.224853-1.409707l2.816-8.987307c2.894507-9.458347 2.658987-9.151147 5.860693-9.151147 2.42688 0 2.658987-0.232107 3.833173-3.751253 24.30976-80.595627 31.96928-105.844053 32.986453-109.438293l1.95584-6.413653 14.455467 0C695.476907 545.498453 701.965653 545.81248 701.965653 546.205013L701.965653 546.205013zM520.37632 590.216533l-5.471573 17.821013-30.95552 0c-3.126613 10.00448-4.222293 13.523627-4.4544 14.230187-0.392533 1.327787 0.703147 1.40288 15.240533 1.40288 8.676693 0 15.714987 0.31744 15.714987 0.70656 0 0.310613-0.314027 1.634987-0.781653 2.891093-0.392533 1.24928-1.641813 5.317973-2.737493 9.065813l-2.030933 6.88128-31.737173 0-3.597653 12.038827c-5.31456 17.431893-4.768427 17.98144 14.92992 15.162027 8.13056-1.092267 7.816533-1.795413 4.222293 10.007893l-3.048107 10.082987-21.418667 0c-33.536 0-34.16064-0.781653-25.326933-30.016853 2.812587-9.14432 5.07904-16.807253 5.07904-16.964267 0-0.1536-3.82976-0.314027-8.598187-0.314027-4.68992 0-8.598187-0.232107-8.598187-0.467627 3.751253-12.82048 5.003947-16.964267 5.157547-17.74592 0.392533-1.174187 1.488213-1.3312 9.304747-1.3312l8.833707 0 4.297387-15.633067-8.362667 0c-6.253227 0-8.287573-0.23552-8.287573-1.017173 0-1.01376 4.611413-16.100693 5.239467-17.196373C443.613867 588.72832 520.843947 589.120853 520.37632 590.216533L520.37632 590.216533zM619.574613 627.346773c-0.232107 0.781653-0.935253 3.908267-1.559893 6.88128-2.973013 14.301867-7.038293 17.506987-23.76704 18.445653-5.7856 0.314027-10.632533 0.781653-10.939733 1.017173-1.252693 1.3312-1.099093 13.755733 0.228693 15.79008l1.3312 2.034347 10.082987-0.546133c5.55008-0.314027 10.082987-0.474453 10.082987-0.314027 0 0.86016-5.474987 18.838187-5.9392 19.61984-0.781653 1.252693-32.44032 0.314027-36.584107-1.092267-6.32832-2.10944-6.253227-1.406293-5.471573-33.614507l0.699733-28.37504 13.134507-0.23552 13.052587-0.157013 0 10.94656 5.085867 0c5.778773 0 6.253227-0.47104 8.598187-7.662933l1.327787-4.06528 10.47552 0C619.106987 626.01216 619.967147 626.09408 619.574613 627.346773L619.574613 627.346773zM667.88352 408.15616l-5.55008 24.388267 7.74144 0.23552c39.23968 1.09568 55.893333-44.40064 17.42848-47.527253-6.017707-0.47104-11.646293-1.017173-12.506453-1.174187C673.512107 383.767893 673.047893 385.563307 667.88352 408.15616L667.88352 408.15616zM463.858347 443.098453c-9.925973 3.986773-18.838187 40.881493-11.332267 46.667093 5.625173 4.379307 13.755733-2.891093 17.664-15.79008C477.381973 449.97632 475.037013 438.565547 463.858347 443.098453zM769.194667 445.600427c-10.24 5.157547-18.13504 41.43104-10.007893 45.64992 10.397013 5.393067 23.296-13.912747 23.296-34.942293C782.482773 446.303573 776.854187 441.770667 769.194667 445.600427L769.194667 445.600427zM562.432 567.545173l-2.73408 9.147733c-1.41312 4.4544-2.658987 8.6016-2.89792 9.14432-0.23552 0.62464 2.501973-0.467627 6.096213-2.34496 10.007893-5.31456 13.370027-6.02112 28.22144-6.488747l13.052587-0.467627c1.880747-6.331733 2.423467-8.598187 2.423467-9.069227C606.59712 566.13888 562.899627 566.295893 562.432 567.545173L562.432 567.545173zM553.44128 596.85888l-2.266453 8.04864 43.933013-0.38912 2.812587-8.205653C563.449173 596.312747 553.44128 596.548267 553.44128 596.85888zM692.507307 578.33472c-1.952427 6.406827-3.35872 11.728213-3.126613 11.728213 0.23552 0 3.126613-1.020587 6.331733-2.266453 3.201707-1.252693 8.51968-2.658987 11.7248-3.126613 3.201707-0.549547 5.864107-1.017173 5.942613-1.09568 0.232107-0.23552 5.003947-15.947093 5.003947-16.493227 0-0.23552-5.003947-0.47104-11.175253-0.47104l-11.178667 0L692.507307 578.33472zM684.53376 604.672c-0.157013 0.392533-1.87392 5.710507-3.672747 11.96032-1.798827 6.253227-3.44064 11.574613-3.597653 11.80672-0.1536 0.314027 2.501973-0.703147 6.024533-2.187947 3.433813-1.488213 8.833707-3.20512 11.96032-3.754667 6.877867-1.174187 7.18848-1.327787 7.738027-4.06528 0.314027-1.245867 1.40288-4.922027 2.423467-8.287573l1.877333-6.017707-11.175253 0C689.926827 604.12928 684.690773 604.368213 684.53376 604.672L684.53376 604.672zM666.794667 663.691947l22.35392 0.628053c4.532907-15.322453 6.099627-20.247893 6.32832-20.794027l-22.35392-1.092267L666.794667 663.691947z" p-id="2275" data-spm-anchor-id="a313x.7781069.0.i6" class="selected"></path></svg>